<?xml version="1.0" encoding="UTF-8" standalone="no"?>
<svg width="512" height="512" viewBox="0 0 512 512" fill="none" xmlns="http://www.w3.org/2000/svg">
  <circle cx="256" cy="256" r="256" fill="#2196F3"/>
  <circle cx="256" cy="256" r="230" fill="#64B5F6"/>
  <circle cx="256" cy="256" r="200" fill="#E3F2FD"/>
  
  <!-- Fish body -->
  <path d="M370 256C370 184 256 130 150 160C150 160 125 200 150 250C125 300 150 340 150 340C256 370 370 320 370 256Z" fill="#2196F3"/>
  
  <!-- Fish tail -->
  <path d="M150 160C120 190 80 200 30 180C80 220 80 280 30 320C80 300 120 310 150 340" fill="#2196F3"/>
  
  <!-- Fin -->
  <path d="M280 180C300 150 350 140 350 140C320 180 320 190 350 210C350 210 300 220 280 190" fill="#1976D2"/>
  
  <!-- Bottom fin -->
  <path d="M280 320C300 350 350 360 350 360C320 320 320 310 350 290C350 290 300 280 280 310" fill="#1976D2"/>
  
  <!-- Eye -->
  <circle cx="320" cy="230" r="20" fill="white"/>
  <circle cx="330" cy="225" r="8" fill="black"/>
  
  <!-- Bubbles -->
  <circle cx="85" cy="210" r="12" fill="white" opacity="0.8"/>
  <circle cx="60" cy="250" r="8" fill="white" opacity="0.6"/>
  <circle cx="70" cy="280" r="10" fill="white" opacity="0.7"/>
</svg> 